<svg width="108" height="108" viewBox="0 0 108 108" fill="none" xmlns="http://www.w3.org/2000/svg">
<rect width="108" height="108" fill="#1E1E1E"/>
<path d="M34 14.5H56C60.1421 14.5 63.5 17.8579 63.5 22V65C63.5 69.1421 60.1421 72.5 56 72.5H34C29.8579 72.5 26.5 69.1421 26.5 65V22C26.5 17.8579 29.8579 14.5 34 14.5Z" fill="#D9D9D9" stroke="black"/>
<rect x="35.5" y="23.5" width="37" height="61" rx="7.5" fill="#D9D9D9" stroke="black"/>
<path d="M53 33.5H75C79.1421 33.5 82.5 36.8579 82.5 41V87C82.5 91.1421 79.1421 94.5 75 94.5H53C48.8579 94.5 45.5 91.1421 45.5 87V41L45.5098 40.6143C45.7105 36.6514 48.9872 33.5 53 33.5Z" fill="#D9D9D9" stroke="black"/>
<path d="M60.656 90.28C60.5707 90.2107 60.432 90.152 60.24 90.104C60.0533 90.056 59.912 90.032 59.816 90.032C59.72 90.032 59.664 90.032 59.648 90.032C59.36 90.0373 59.152 90.112 59.024 90.256C58.896 90.3947 58.832 90.552 58.832 90.728C58.832 90.904 58.888 91.0533 59 91.176C59.112 91.2933 59.2507 91.3867 59.416 91.456C59.5867 91.52 59.768 91.5947 59.96 91.68C60.1573 91.7653 60.3387 91.8533 60.504 91.944C60.6747 92.0293 60.816 92.1573 60.928 92.328C61.04 92.4933 61.096 92.7013 61.096 92.952C61.096 93.2027 61.008 93.416 60.832 93.592C60.656 93.768 60.4587 93.8853 60.24 93.944C60.0267 94.0027 59.7947 94.032 59.544 94.032C59 94.032 58.592 93.912 58.32 93.672L58.368 93.624C58.4747 93.7253 58.632 93.808 58.84 93.872C59.0533 93.936 59.2587 93.968 59.456 93.968C59.7707 93.968 60.0293 93.8827 60.232 93.712C60.44 93.536 60.544 93.32 60.544 93.064C60.544 92.8027 60.4667 92.5947 60.312 92.44C60.1573 92.28 59.968 92.1573 59.744 92.072C59.5253 91.9813 59.304 91.8933 59.08 91.808C58.856 91.7173 58.6667 91.5947 58.512 91.44C58.3573 91.28 58.28 91.096 58.28 90.888C58.28 90.68 58.328 90.512 58.424 90.384C58.52 90.2507 58.648 90.1573 58.808 90.104C59.08 90.0133 59.352 89.968 59.624 89.968C60.0827 89.968 60.44 90.0533 60.696 90.224L60.656 90.28ZM61.655 90.064V90H61.823V89.2H62.383V90H63.607V90.064H62.383V92.976C62.383 93.3227 62.4203 93.5733 62.495 93.728C62.575 93.8827 62.7377 93.96 62.983 93.96C63.2337 93.96 63.487 93.9093 63.743 93.808L63.767 93.872C63.5003 93.9733 63.1937 94.024 62.847 94.024C62.5057 94.024 62.2497 93.9547 62.079 93.816C61.9083 93.672 61.823 93.3893 61.823 92.968V90.064H61.655ZM64.9269 93.08C64.9269 93.5013 65.0389 93.7707 65.2629 93.888C65.3695 93.9413 65.5055 93.968 65.6709 93.968C66.0069 93.968 66.3055 93.84 66.5669 93.584C66.8335 93.328 66.9775 93.0907 66.9989 92.872V90H67.5589V93.432C67.5589 93.5867 67.5882 93.7067 67.6469 93.792C67.7109 93.872 67.7749 93.9147 67.8389 93.92L67.9269 93.936H68.1749V94H67.6869C67.4682 94 67.3002 93.952 67.1829 93.856C67.0709 93.76 67.0122 93.664 67.0069 93.568L66.9989 93.432V93.088C66.9029 93.3173 66.7322 93.5333 66.4869 93.736C66.2415 93.9333 65.9722 94.032 65.6789 94.032C65.3909 94.032 65.1535 94.0053 64.9669 93.952C64.7855 93.8933 64.6549 93.8133 64.5749 93.712C64.4362 93.5467 64.3669 93.3333 64.3669 93.072V90H64.9269V93.08ZM68.3356 92.144C68.3356 91.4507 68.5036 90.9147 68.8396 90.536C69.1756 90.1573 69.6796 89.968 70.3516 89.968C70.6663 89.968 70.9836 90.048 71.3036 90.208V88.008H71.8636V93.432C71.8636 93.5867 71.893 93.7067 71.9516 93.792C72.0156 93.872 72.0796 93.9147 72.1436 93.92L72.2316 93.936H72.4796V94H71.9916C71.773 94 71.605 93.952 71.4876 93.856C71.3756 93.76 71.317 93.664 71.3116 93.568L71.3036 93.432V93.304C71.2023 93.4907 71.0343 93.656 70.7996 93.8C70.565 93.944 70.2876 94.016 69.9676 94.016C68.8796 93.9893 68.3356 93.3653 68.3356 92.144ZM69.9756 93.952C70.333 93.952 70.6396 93.856 70.8956 93.664C71.1516 93.472 71.2876 93.2827 71.3036 93.096V90.28C70.925 90.1147 70.5996 90.032 70.3276 90.032C69.853 90.032 69.4956 90.2187 69.2556 90.592C69.0156 90.96 68.8956 91.4773 68.8956 92.144C68.8956 93.3493 69.2556 93.952 69.9756 93.952ZM73.7766 94C73.558 94 73.39 93.952 73.2726 93.856C73.1606 93.76 73.102 93.664 73.0966 93.568L73.0886 93.432V90H73.6486V93.432C73.6486 93.5867 73.678 93.7067 73.7366 93.792C73.8006 93.872 73.862 93.9147 73.9206 93.92L74.0166 93.936H74.2646V94H73.7766ZM73.1366 89.104C73.0726 89.04 73.0406 88.96 73.0406 88.864C73.0406 88.768 73.0726 88.688 73.1366 88.624C73.2006 88.5547 73.2806 88.52 73.3766 88.52C73.4726 88.52 73.5526 88.5547 73.6166 88.624C73.686 88.688 73.7206 88.768 73.7206 88.864C73.7206 88.96 73.686 89.04 73.6166 89.104C73.5526 89.168 73.4726 89.2 73.3766 89.2C73.2806 89.2 73.2006 89.168 73.1366 89.104ZM76.4035 94.032C75.8435 94.032 75.3875 93.872 75.0355 93.552C74.6835 93.232 74.5075 92.7387 74.5075 92.072C74.5075 91.4053 74.6888 90.888 75.0515 90.52C75.4195 90.152 75.8835 89.968 76.4435 89.968C77.0088 89.968 77.4675 90.128 77.8195 90.448C78.1715 90.768 78.3475 91.2613 78.3475 91.928C78.3475 92.5947 78.1635 93.112 77.7955 93.48C77.4328 93.848 76.9688 94.032 76.4035 94.032ZM76.4595 90.032C76.0542 90.032 75.7182 90.2133 75.4515 90.576C75.1848 90.9333 75.0515 91.4347 75.0515 92.08C75.0515 92.72 75.1742 93.1947 75.4195 93.504C75.6648 93.8133 75.9902 93.968 76.3955 93.968C76.8008 93.968 77.1368 93.7893 77.4035 93.432C77.6702 93.0693 77.8035 92.568 77.8035 91.928C77.8035 91.2827 77.6808 90.8053 77.4355 90.496C77.1902 90.1867 76.8648 90.032 76.4595 90.032Z" fill="black"/>
</svg>
